<svg xmlns="http://www.w3.org/2000/svg" version="1.1" xmlns:xlink="http://www.w3.org/1999/xlink" xmlns:svgjs="http://svgjs.dev/svgjs" width="2000" height="1500" viewBox="0 0 2000 1500"><rect width="2000" height="1500" fill="#ea3c12"></rect><g transform="matrix(0.4859086491739553,0,0,0.4859086491739553,513.7816356813869,250.40485829959522)"><svg viewBox="0 0 240 247" data-background-color="#ea3c12" preserveAspectRatio="xMidYMid meet" height="2058" width="2000" xmlns="http://www.w3.org/2000/svg" xmlns:xlink="http://www.w3.org/1999/xlink"><g id="tight-bounds" transform="matrix(1,0,0,1,0.07648725212467866,-0.09999999999999432)"><svg viewBox="0 0 239.84702549575064 247.2" height="247.2" width="239.84702549575064"><g><svg viewBox="0 0 239.84702549575067 247.20000000000002" height="247.2" width="239.84702549575064"><g><svg viewBox="0 0 239.84702549575067 247.20000000000002" height="247.20000000000002" width="239.84702549575067"><g id="textblocktransform"><svg viewBox="0 0 239.84702549575067 247.20000000000002" height="247.20000000000002" width="239.84702549575067" id="textblock"><g><svg viewBox="0 0 239.84702549575067 247.20000000000002" height="247.20000000000002" width="239.84702549575067"><g transform="matrix(1,0,0,1,0,0)"><svg width="239.84702549575067" viewBox="1.5 -34.65 34.25 35.3" height="247.20000000000002" data-palette-color="#ffffff"><path d="M5.7 0.65Q4.1 0.65 2.98-0.2 1.85-1.05 1.5-2.4L1.5-2.4 3.8-3.65Q4.05-3 4.53-2.58 5-2.15 5.65-2.15L5.65-2.15Q6.25-2.15 6.63-2.55 7-2.95 7.4-3.9L7.4-3.9 20.2-34.65 21.2-34.65 35.75 0 32.55 0 27.8-11.35 13.55-11.35 9.8-2.05Q9.3-0.8 8.15-0.08 7 0.65 5.7 0.65L5.7 0.65ZM14.75-14.15L26.6-14.15 21.2-27.6 20.65-29.6 20.15-27.6 14.75-14.15Z" opacity="1" transform="matrix(1,0,0,1,0,0)" fill="#ffffff" class="wordmark-text-0" data-fill-palette-color="primary" id="text-0"></path></svg></g></svg></g></svg></g></svg></g></svg></g><defs></defs></svg><rect width="239.84702549575064" height="247.2" fill="none" stroke="none" visibility="hidden"></rect></g></svg></g></svg>